<svg xmlns="http://www.w3.org/2000/svg" width="24" height="24" fill="none"><g clip-path="url(#a)"><path fill="#25F4EE" d="M9.465 9.45v-.936a7.223 7.223 0 0 0-.98-.072c-4.013 0-7.278 3.265-7.278 7.278a7.27 7.27 0 0 0 3.107 5.958 7.248 7.248 0 0 1-1.954-4.955c0-3.955 3.172-7.18 7.106-7.273h-.001Z"/><path fill="#25F4EE" d="M9.637 20.047c1.79 0 3.25-1.425 3.317-3.199l.006-15.844h2.895A5.512 5.512 0 0 1 15.76 0h-3.953l-.007 15.845a3.325 3.325 0 0 1-3.317 3.198c-.556 0-1.08-.139-1.541-.382a3.317 3.317 0 0 0 2.694 1.386ZM21.262 6.381v-.88a5.465 5.465 0 0 1-2.996-.891 5.505 5.505 0 0 0 2.996 1.771Z"/><path fill="#FE2C55" d="M18.267 4.61a5.474 5.474 0 0 1-1.353-3.607h-1.059a5.511 5.511 0 0 0 2.412 3.607ZM8.484 12.396a3.328 3.328 0 0 0-3.323 3.324c0 1.276.724 2.385 1.782 2.941a3.301 3.301 0 0 1-.63-1.938 3.328 3.328 0 0 1 3.324-3.324c.342 0 .67.057.98.154V9.516a7.224 7.224 0 0 0-.98-.07c-.058 0-.114.002-.171.004v3.1a3.284 3.284 0 0 0-.981-.154Z"/><path fill="#FE2C55" d="M21.262 6.381v3.073c-2.05 0-3.95-.656-5.5-1.769v8.035c0 4.013-3.265 7.277-7.278 7.277a7.234 7.234 0 0 1-4.17-1.319A7.256 7.256 0 0 0 9.637 24c4.013 0 7.277-3.265 7.277-7.277V8.689a9.403 9.403 0 0 0 5.5 1.768V6.503c-.395 0-.78-.042-1.152-.122Z"/><path fill="#fff" d="M15.761 15.72V7.685a9.403 9.403 0 0 0 5.5 1.769V6.38a5.501 5.501 0 0 1-2.995-1.771 5.51 5.51 0 0 1-2.411-3.607H12.96l-.006 15.845a3.325 3.325 0 0 1-3.317 3.198 3.317 3.317 0 0 1-2.694-1.385 3.326 3.326 0 0 1-1.782-2.942 3.328 3.328 0 0 1 3.323-3.323c.342 0 .67.056.981.153v-3.1c-3.933.093-7.105 3.318-7.105 7.273 0 1.914.742 3.655 1.954 4.955a7.237 7.237 0 0 0 4.17 1.32c4.013 0 7.277-3.265 7.277-7.277Z"/></g><defs><clipPath id="a"><path fill="#fff" d="M1.207 0h21.207v24H1.207z"/></clipPath></defs></svg>