<svg width="24" height="17" viewBox="0 0 24 17" fill="none" xmlns="http://www.w3.org/2000/svg">
<g clip-path="url(#clip0_2861_6783)">
<path d="M23.4982 2.64C23.2227 1.60091 22.4086 0.782727 21.3764 0.504545C19.5055 0 12 0 12 0C12 0 4.49455 0 2.62364 0.504545C1.59136 0.782727 0.777273 1.60091 0.501818 2.64C0 4.52455 0 8.45455 0 8.45455C0 8.45455 0 12.3845 0.501818 14.2691C0.777273 15.3082 1.59136 16.1264 2.62364 16.4045C4.49591 16.9091 12 16.9091 12 16.9091C12 16.9091 19.5055 16.9091 21.3764 16.4045C22.4086 16.1264 23.2227 15.3082 23.4982 14.2691C24 12.3859 24 8.45455 24 8.45455C24 8.45455 24 4.52455 23.4982 2.64Z" fill="#FF0000"/>
<path d="M9.54547 12.0232L15.8182 8.45456L9.54547 4.88593V12.0232Z" fill="white"/>
</g>
<defs>
<clipPath id="clip0_2861_6783">
<rect width="24" height="16.9091" fill="white"/>
</clipPath>
</defs>
</svg>
